<?xml version="1.0" encoding="UTF-8" standalone="no"?>
<!-- Uploaded to: SVG Repo, www.svgrepo.com, Generator: SVG Repo Mixer Tools -->

<svg
   width="800px"
   height="800px"
   viewBox="0 -8 72 72"
   id="Layer_1"
   data-name="Layer 1"
   version="1.1"
   sodipodi:docname="handshake.svg"
   inkscape:version="1.3.2 (091e20e, 2023-11-25, custom)"
   xmlns:inkscape="http://www.inkscape.org/namespaces/inkscape"
   xmlns:sodipodi="http://sodipodi.sourceforge.net/DTD/sodipodi-0.dtd"
   xmlns="http://www.w3.org/2000/svg"
   xmlns:svg="http://www.w3.org/2000/svg">
  <sodipodi:namedview
     id="namedview1"
     pagecolor="#505050"
     bordercolor="#ffffff"
     borderopacity="1"
     inkscape:showpageshadow="0"
     inkscape:pageopacity="0"
     inkscape:pagecheckerboard="1"
     inkscape:deskcolor="#505050"
     inkscape:zoom="0.710625"
     inkscape:cx="187.8628"
     inkscape:cy="353.91381"
     inkscape:window-width="2560"
     inkscape:window-height="1351"
     inkscape:window-x="-9"
     inkscape:window-y="-9"
     inkscape:window-maximized="1"
     inkscape:current-layer="Layer_1" />
  <defs
     id="defs1">
    <style
       id="style1">.cls-1{fill:#030104;}</style>
  </defs>
  <title
     id="title1">handshake</title>
  <path
     class="cls-1"
     d="M 71.472296,8.6948114 V 30.231561 c 0,0 -4.59873,0.899476 -5.548881,1.026162 -0.950151,0.126688 -3.901953,1.076838 -6.055628,-0.988156 C 56.548594,27.026385 44.779393,15.307859 44.779393,15.307859 a 4.4847116,4.4847116 0 0 0 -5.295507,-0.266042 c -2.989808,1.570916 -7.436513,3.889284 -9.28614,4.78876 a 4.2693442,4.2693442 0 0 1 -6.410351,-3.34453 4.3580248,4.3580248 0 0 1 2.660423,-3.800604 c 4.218669,-2.533736 13.124749,-7.6012055 16.836671,-9.5268444 2.255025,-1.2668677 3.876615,-1.2668677 6.980441,1.2668677 3.813272,3.2811871 7.271821,6.1569767 7.271821,6.1569767 a 3.4838862,3.4838862 0 0 0 2.863121,0.544752 C 64.669216,10.240389 71.472296,8.6948114 71.472296,8.6948114 Z M 24.598191,45.079251 a 3.800603,3.800603 0 0 0 -4.497381,-5.18149 3.8892838,3.8892838 0 0 0 -0.810795,-3.800602 3.9652958,3.9652958 0 0 0 -3.800603,-0.950152 3.8892838,3.8892838 0 0 0 -0.823464,-3.800602 4.2820128,4.2820128 0 0 0 -5.9796157,0.164692 c -1.7482774,1.672266 -2.8757898,4.712748 -1.2668678,6.5117 1.608922,1.798952 3.3445305,0.696778 4.7127485,0.38006 -0.380061,1.355548 -1.520242,2.622416 -0.114019,4.396032 1.406224,1.773614 3.344531,0.696776 4.712748,0.38006 -0.38006,1.355548 -1.469566,2.736434 -0.126686,4.383362 1.342879,1.646928 3.597904,0.77279 5.06747,0.316716 -0.57009,1.456898 -1.786283,3.027814 -0.228036,4.80143 1.558247,1.773614 5.16882,0.95015 6.929766,-0.734784 a 4.2060008,4.2060008 0 0 0 0.380061,-5.92894 4.0286392,4.0286392 0 0 0 -4.155326,-0.937482 z M 56.713287,33.905477 43.119796,20.375331 a 4.472043,4.472043 0 0 0 -4.776091,-0.86147 c -1.900301,0.836132 -4.345356,1.976312 -6.194983,2.837782 A 10.324972,10.324972 0 0 1 27.980727,23.745199 7.0817904,7.0817904 0 0 1 24.180124,10.645787 C 27.131926,8.6314674 33.580283,5.1729178 33.580283,5.1729178 A 8.1839654,8.1839654 0 0 0 27.245944,2.6391829 c -4.332687,0 -13.40346,5.9542785 -13.40346,5.9542785 A 7.1071278,7.1071278 0 0 1 7.5968261,8.7581534 L 0.52770425,6.300431 v 24.577232 c 0,0 2.01431965,0.58276 3.80060305,1.266868 a 8.0192726,8.0192726 0 0 1 1.9763136,-3.129164 7.8165736,7.8165736 0 0 1 10.7430381,-0.07602 6.8410856,6.8410856 0 0 1 1.697603,3.002477 6.9551036,6.9551036 0 0 1 2.901127,1.773615 6.8410856,6.8410856 0 0 1 1.684934,3.053151 6.9297664,6.9297664 0 0 1 4.700079,5.067471 6.8157482,6.8157482 0 0 1 3.027814,1.81162 7.1578024,7.1578024 0 0 1 1.874964,6.194983 c 0,0 1.013494,1.140181 1.63426,1.760947 a 3.1174215,3.1174215 0 0 0 4.408699,-4.4087 c 0,0 2.533735,3.141832 5.422194,1.266868 2.533735,-1.773615 2.141006,-3.876616 0.937482,-5.067471 a 4.041308,4.041308 0 0 0 6.042959,0.164693 3.1038258,3.1038258 0 0 0 0.164693,-4.180664 c 0,0 1.684934,2.293031 5.06747,0.152024 2.39438,-2.026988 1.266868,-4.345356 0,-5.561549 z"
     id="path1"
     style="stroke-width:1.26686" />
</svg>
