<?xml version="1.0" encoding="UTF-8" standalone="no"?>
<svg
   id="Layer_1"
   data-name="Layer 1"
   viewBox="0 0 24 24"
   version="1.1"
   sodipodi:docname="lmb.svg"
   inkscape:version="1.3.2 (091e20e, 2023-11-25, custom)"
   xmlns:inkscape="http://www.inkscape.org/namespaces/inkscape"
   xmlns:sodipodi="http://sodipodi.sourceforge.net/DTD/sodipodi-0.dtd"
   xmlns="http://www.w3.org/2000/svg"
   xmlns:svg="http://www.w3.org/2000/svg">
  <defs
     id="defs1">
    <inkscape:path-effect
       effect="fillet_chamfer"
       id="path-effect3"
       is_visible="true"
       lpeversion="1"
       nodesatellites_param="F,0,0,1,0,2.4642391,0,1 @ F,0,0,1,0,0,0,1 @ F,0,0,1,0,0,0,1 @ F,0,0,1,0,0,0,1"
       radius="0"
       unit="px"
       method="auto"
       mode="F"
       chamfer_steps="1"
       flexible="false"
       use_knot_distance="true"
       apply_no_radius="true"
       apply_with_radius="true"
       only_selected="false"
       hide_knots="false" />
    <inkscape:path-effect
       effect="powerstroke"
       id="path-effect2"
       is_visible="true"
       lpeversion="1.3"
       scale_width="1"
       interpolator_type="CentripetalCatmullRom"
       interpolator_beta="0.75"
       start_linecap_type="zerowidth"
       end_linecap_type="zerowidth"
       offset_points="73.432916,0.63324538"
       linejoin_type="spiro"
       miter_limit="4"
       not_jump="true"
       sort_points="true"
       message="&lt;b&gt;Ctrl + click&lt;/b&gt; on existing node and move it" />
    <inkscape:path-effect
       effect="simplify"
       id="path-effect1"
       is_visible="true"
       lpeversion="1.3"
       threshold="0.012"
       steps="1"
       smooth_angles="0"
       helper_size="0"
       simplify_individual_paths="false"
       simplify_just_coalesce="false"
       step="1" />
  </defs>
  <sodipodi:namedview
     id="namedview1"
     pagecolor="#505050"
     bordercolor="#ffffff"
     borderopacity="1"
     inkscape:showpageshadow="0"
     inkscape:pageopacity="0"
     inkscape:pagecheckerboard="1"
     inkscape:deskcolor="#505050"
     inkscape:zoom="33.499184"
     inkscape:cx="10.507719"
     inkscape:cy="10.22413"
     inkscape:window-width="2560"
     inkscape:window-height="1351"
     inkscape:window-x="-9"
     inkscape:window-y="-9"
     inkscape:window-maximized="1"
     inkscape:current-layer="Layer_1" />
  <path
     d="m15.5,3h-2.5V0h-2v3h-2.5c-2.481,0-4.5,2.019-4.5,4.5v8.5c0,4.411,3.589,8,8,8s8-3.589,8-8V7.5c0-2.481-2.019-4.5-4.5-4.5Zm0,2c1.379,0,2.5,1.122,2.5,2.5v2.5h-5v-5h2.5Zm-7,0h2.5v5h-5v-2.5c0-1.378,1.122-2.5,2.5-2.5Zm3.5,17c-3.309,0-6-2.691-6-6v-4h12v4c0,3.309-2.691,6-6,6Z"
     id="path1" />
  <path
     style="fill:#000000;stroke-width:0;stroke-linecap:round;stroke-linejoin:round;stroke-miterlimit:20;paint-order:stroke fill markers;fill-opacity:1"
     id="rect2"
     width="4.4926467"
     height="4.4777207"
     x="6.2091069"
     y="5.268785"
     inkscape:path-effect="#path-effect3"
     sodipodi:type="rect"
     d="m 8.673346,5.268785 h 2.028408 V 9.7465057 H 6.2091069 V 7.7330241 A 2.4642391,2.4642391 135 0 1 8.673346,5.268785 Z" />
</svg>
