<?xml version="1.0" encoding="UTF-8" standalone="no"?>
<svg
   stroke="currentColor"
   fill="currentColor"
   stroke-width="0"
   viewBox="0 0 24 24"
   height="200px"
   width="200px"
   version="1.1"
   id="svg1"
   sodipodi:docname="swords.svg"
   inkscape:version="1.3.2 (091e20e, 2023-11-25, custom)"
   xmlns:inkscape="http://www.inkscape.org/namespaces/inkscape"
   xmlns:sodipodi="http://sodipodi.sourceforge.net/DTD/sodipodi-0.dtd"
   xmlns="http://www.w3.org/2000/svg"
   xmlns:svg="http://www.w3.org/2000/svg">
  <defs
     id="defs1" />
  <sodipodi:namedview
     id="namedview1"
     pagecolor="#505050"
     bordercolor="#ffffff"
     borderopacity="1"
     inkscape:showpageshadow="0"
     inkscape:pageopacity="0"
     inkscape:pagecheckerboard="1"
     inkscape:deskcolor="#505050"
     inkscape:zoom="2.8425"
     inkscape:cx="90.941073"
     inkscape:cy="89.885664"
     inkscape:window-width="2560"
     inkscape:window-height="1351"
     inkscape:window-x="2391"
     inkscape:window-y="-9"
     inkscape:window-maximized="1"
     inkscape:current-layer="svg1" />
  <path
     d="M 6.0178791,13.373451 10.289121,17.645938 8.5820595,19.354087 10.291296,21.064168 8.5824702,22.772921 5.5925757,19.78206 2.1745869,23.200048 0.46580997,21.491296 3.8837989,18.073307 0.89301034,15.083413 2.6017751,13.37466 4.3101412,15.082083 Z M 1.1254716,0.79994576 5.4100284,0.80399889 19.688711,15.082693 l 1.709477,-1.708027 1.708875,1.708753 -2.990378,2.990377 3.417505,3.417505 -1.708753,1.708753 -3.417505,-3.417505 -2.990378,2.990378 -1.708753,-1.708753 1.708028,-1.709599 L 1.1287824,5.0666079 Z m 17.4684144,1.2082e-4 4.280702,0.003931 0.0023,4.25693552 -4.897046,4.8955009 -4.272487,-4.2712781 z"
     id="path1"
     style="stroke-width:0" />
</svg>
