<?xml version="1.0" encoding="UTF-8" standalone="no"?>
<!-- Created with Inkscape (http://www.inkscape.org/) -->

<svg
   width="512"
   height="512"
   viewBox="0 0 135.46666 135.46667"
   version="1.1"
   id="svg1"
   xml:space="preserve"
   xmlns="http://www.w3.org/2000/svg"
   xmlns:svg="http://www.w3.org/2000/svg"><defs
     id="defs1" /><g
     id="layer1"><path
       style="fill:#000000;stroke-width:1.35637"
       d="M 8.4937115,14.416222 C 10.827423,11.338442 12.943026,8.6319637 13.195068,8.4018257 l 0.458224,-0.4184322 5.38486,4.1836495 c 2.96165,2.301009 7.945612,6.163299 11.075437,8.582872 3.129828,2.419571 10.589454,8.186122 16.576956,12.814577 5.987502,4.628439 13.298536,10.285522 16.246773,12.571285 6.315385,4.896331 5.301918,4.714524 9.113961,1.63507 1.698312,-1.371928 4.613326,-3.710019 6.477797,-5.195758 1.864487,-1.48574 4.436662,-3.537765 5.715982,-4.560044 1.279285,-1.022286 3.60094,-2.874642 5.15916,-4.116362 1.558251,-1.241726 9.559064,-7.641167 17.779612,-14.220999 8.22052,-6.579825 15.1171,-12.0556015 15.32568,-12.1683863 0.39581,-0.2139998 0.89186,0.4637566 6.15063,8.4032583 l 3.20082,4.832519 -21.70149,17.318879 C 98.223614,47.589337 86.149495,57.235234 83.328048,59.499271 71.470639,69.014179 68.883543,71.081384 68.726816,71.166367 68.635941,71.215593 66.02269,69.233241 62.91965,66.761008 59.816622,64.288786 54.198287,59.817625 50.434464,56.825086 46.670668,53.832546 41.105552,49.402059 38.067555,46.979554 35.029553,44.557039 29.020588,39.776768 24.714313,36.356712 16.10753,29.521185 5.0575827,20.706035 4.5645488,20.282138 4.3919001,20.133668 6.1599765,17.494001 8.4937115,14.416222 Z M 6.3406134,44.824988 c 1.3220589,-1.700266 3.3909271,-4.3908 4.5975166,-5.978956 l 2.193781,-2.887575 1.317436,0.961093 c 0.72458,0.528611 4.62709,3.526368 8.672242,6.661691 4.04515,3.13533 10.296115,7.974368 13.891013,10.753439 15.263016,11.799183 20.905035,16.165447 25.865381,20.016851 4.043024,3.13916 5.386541,4.006896 5.821535,3.759944 0.311009,-0.176562 4.252687,-3.273271 8.759241,-6.881558 4.506578,-3.608297 9.427601,-7.544592 10.935636,-8.747351 1.508015,-1.202752 3.912341,-3.123304 5.34297,-4.267903 27.485215,-21.990187 28.774435,-22.98891 29.111695,-22.55222 0.19309,0.250014 2.24242,3.290741 4.55406,6.757146 l 4.20299,6.302565 -25.00667,19.97321 C 92.845763,79.680642 78.66891,91.013031 75.095294,93.878454 67.279091,100.14572 69.873043,100.59641 57.659686,90.849129 51.998466,86.330991 41.646573,78.085726 34.655507,72.52632 8.014183,51.340726 3.8880039,48.046616 3.9120948,47.98246 3.9257312,47.946153 5.0185715,46.525255 6.3406134,44.824988 Z M 8.1642093,70.924375 C 10.659606,67.675456 12.77127,64.9814 12.856797,64.937621 c 0.143691,-0.07355 10.042076,7.542997 41.401559,31.857098 6.667736,5.169711 12.496245,9.672541 12.952235,10.006301 l 0.829058,0.60683 1.924805,-1.5823 c 1.058649,-0.87028 3.779266,-3.05439 6.045793,-4.85356 7.403834,-5.87722 10.444922,-8.299156 21.390264,-17.0353 5.938979,-4.74025 12.976909,-10.35523 15.639809,-12.477729 2.66292,-2.1225 5.78611,-4.644396 6.94039,-5.604245 1.15426,-0.959857 2.1704,-1.707668 2.25803,-1.661809 0.0876,0.04583 2.15437,3.093129 4.59278,6.771762 l 4.43343,6.688391 -8.73645,6.972974 c -11.79703,9.415748 -34.256749,27.351446 -45.292003,36.168916 -4.961743,3.96456 -9.148598,7.2018 -9.30412,7.19387 -0.155361,-0.008 -4.028488,-3.01045 -8.606609,-6.67228 C 47.692259,112.01148 39.876916,105.78666 13.296809,84.655162 7.9549406,80.408318 3.5939767,76.910659 3.6057345,76.882586 c 0.011757,-0.02808 2.0630867,-2.709279 4.5584748,-5.958211 z"
       id="path1" /></g></svg>
