<?xml version="1.0" encoding="UTF-8" standalone="no"?>
<svg
   class="w-6 h-6 text-gray-800 dark:text-white"
   aria-hidden="true"
   width="24"
   height="24"
   fill="currentColor"
   viewBox="0 0 24 24"
   version="1.1"
   id="svg2"
   sodipodi:docname="update.svg"
   inkscape:version="1.3.2 (091e20e, 2023-11-25, custom)"
   xmlns:inkscape="http://www.inkscape.org/namespaces/inkscape"
   xmlns:sodipodi="http://sodipodi.sourceforge.net/DTD/sodipodi-0.dtd"
   xmlns="http://www.w3.org/2000/svg"
   xmlns:svg="http://www.w3.org/2000/svg">
  <defs
     id="defs2" />
  <sodipodi:namedview
     id="namedview2"
     pagecolor="#505050"
     bordercolor="#ffffff"
     borderopacity="1"
     inkscape:showpageshadow="0"
     inkscape:pageopacity="0"
     inkscape:pagecheckerboard="1"
     inkscape:deskcolor="#505050"
     inkscape:zoom="23.6875"
     inkscape:cx="9.4564644"
     inkscape:cy="19.060686"
     inkscape:window-width="2560"
     inkscape:window-height="1351"
     inkscape:window-x="2391"
     inkscape:window-y="-9"
     inkscape:window-maximized="1"
     inkscape:current-layer="svg2" />
  <path
     fill-rule="evenodd"
     d="M 11.761529,4.2879332 H 3.3933534 c -1.4631065,0 -2.64815671,1.2565503 -2.64815671,2.8043979 V 21.111672 c 0,1.549172 1.18505021,2.804399 2.64815671,2.804399 H 17.958216 c 1.463106,0 2.648157,-1.255227 2.648157,-2.804399 V 10.850065 l -5.182443,5.486981 a 3.2572327,3.2572327 0 0 1 -1.689524,0.958632 l -3.549854,0.752078 C 7.8674142,18.537664 5.8256853,16.375445 6.2891127,13.923251 l 0.709706,-3.759058 C 7.1272543,9.4862647 7.4423851,8.8626239 7.9044883,8.3740389 L 11.762853,4.2879332 Z"
     clip-rule="evenodd"
     id="path1"
     style="stroke-width:1.32408" />
  <path
     fill-rule="evenodd"
     d="m 23.05062,1.8277956 a 2.8441203,2.8441203 0 0 0 -0.578621,-0.91626225 2.6666939,2.6666939 0 0 0 -0.865948,-0.61304826 2.5422304,2.5422304 0 0 0 -2.044376,0 2.6666939,2.6666939 0 0 0 -0.865947,0.61304826 L 17.97278,1.6768507 21.749051,5.6755672 22.471999,4.9089259 a 2.8335277,2.8335277 0 0 0 0.578621,-0.9162623 2.9712318,2.9712318 0 0 0 0,-2.164868 z M 19.87813,7.6577125 16.100534,3.6576719 9.7754109,10.357508 a 0.7150023,0.7150023 0 0 0 -0.181399,0.357501 l -0.7097058,3.760384 c -0.092685,0.489908 0.3164549,0.921557 0.7785581,0.823576 l 3.5511788,-0.750753 a 0.65144654,0.65144654 0 0 0 0.337639,-0.191991 L 19.87813,7.6563884 Z"
     clip-rule="evenodd"
     id="path2"
     style="stroke-width:1.32408" />
</svg>
