<?xml version="1.0" encoding="UTF-8" standalone="no"?>
<svg
   id="Vrstva_2"
   viewBox="0 0 57.2 38.35"
   version="1.1"
   sodipodi:docname="zarivka_mp_playing_bile.svg"
   xml:space="preserve"
   inkscape:version="1.3.2 (091e20e, 2023-11-25, custom)"
   xmlns:inkscape="http://www.inkscape.org/namespaces/inkscape"
   xmlns:sodipodi="http://sodipodi.sourceforge.net/DTD/sodipodi-0.dtd"
   xmlns="http://www.w3.org/2000/svg"
   xmlns:svg="http://www.w3.org/2000/svg"><sodipodi:namedview
     id="namedview8"
     pagecolor="#505050"
     bordercolor="#ffffff"
     borderopacity="1"
     inkscape:showpageshadow="0"
     inkscape:pageopacity="0"
     inkscape:pagecheckerboard="1"
     inkscape:deskcolor="#505050"
     inkscape:zoom="14.72315"
     inkscape:cx="26.522857"
     inkscape:cy="16.742341"
     inkscape:window-width="2560"
     inkscape:window-height="1351"
     inkscape:window-x="2391"
     inkscape:window-y="-9"
     inkscape:window-maximized="1"
     inkscape:current-layer="Vrstva_2" /><defs
     id="defs1"><style
       id="style1">
      .cls-1 {
        fill: #fff;
      }
    </style><style
       id="style1-9">
      .cls-1 {
        fill: #fff;
      }
    </style></defs><g
     id="Elementy"
     transform="matrix(0.77478926,0,0,0.77478926,0.20432256,8.490593)"><g
       id="g8"><path
         class="cls-1"
         d="m 44.07,24.6 c 0,-3.18 -2.54,-5.72 -5.72,-5.72 -3.18,0 -5.72,2.54 -5.72,5.72 0,2.77 1.94,5.06 4.54,5.6 -6.45,-0.76 -8.45,-5.51 -9.05,-7.85 0.68,-1.51 1.06,-3.15 1.06,-4.85 0,-3.16 -1.23,-6.14 -3.47,-8.38 -4.48,-4.48 -12.28,-4.48 -16.76,0 -4.62,4.62 -4.62,12.14 0,16.76 l 0.47,0.47 h 15.82 l 0.47,-0.47 c 0.08,-0.08 0.14,-0.18 0.22,-0.26 1.59,3.51 5.15,7.9 13.05,7.9 0.89,0 1.61,-0.72 1.61,-1.61 0,-0.89 -0.72,-1.61 -1.61,-1.61 -0.1,0 -0.19,-0.01 -0.29,-0.02 3.01,-0.18 5.38,-2.63 5.38,-5.69 z M 17.94,19.59 c 0,0.89 -0.72,1.61 -1.61,1.61 -0.89,0 -1.61,-0.72 -1.61,-1.61 v -1.45 c 0,-0.89 0.72,-1.61 1.61,-1.61 0.89,0 1.61,0.72 1.61,1.61 z m 5.75,0 c 0,0.89 -0.72,1.61 -1.61,1.61 -0.89,0 -1.61,-0.72 -1.61,-1.61 v -1.45 c 0,-0.89 0.72,-1.61 1.61,-1.61 0.89,0 1.61,0.72 1.61,1.61 z m 14.71,7.77 c -1.54,0 -2.75,-1.22 -2.75,-2.75 -0.05,-1.54 1.22,-2.75 2.75,-2.75 1.53,0 2.75,1.22 2.75,2.75 0,1.53 -1.22,2.75 -2.75,2.75 z"
         id="path2" /><path
         class="cls-1"
         d="m 2.52,22.88 -1.21,0.54 c -0.81,0.36 -1.17,1.31 -0.82,2.12 0.27,0.6 0.85,0.95 1.47,0.95 0.22,0 0.44,-0.04 0.65,-0.14 L 3.82,25.81 C 4.63,25.45 4.99,24.5 4.64,23.69 4.28,22.88 3.33,22.52 2.52,22.87 Z"
         id="path3" /><path
         class="cls-1"
         d="m 1.03,13.1 1.24,0.47 c 0.19,0.07 0.38,0.11 0.57,0.11 0.65,0 1.25,-0.39 1.5,-1.03 0.32,-0.83 -0.1,-1.76 -0.92,-2.07 L 2.18,10.11 c -0.82,-0.32 -1.76,0.1 -2.07,0.92 -0.32,0.83 0.1,1.76 0.92,2.07 z"
         id="path4" /><path
         class="cls-1"
         d="m 9.82,3.82 c 0.27,0.6 0.85,0.95 1.47,0.95 0.22,0 0.44,-0.04 0.65,-0.14 0.81,-0.36 1.17,-1.31 0.81,-2.12 L 12.21,1.3 C 11.85,0.49 10.9,0.12 10.09,0.49 9.28,0.85 8.92,1.8 9.28,2.61 Z"
         id="path5" /><path
         class="cls-1"
         d="m 22.98,4.34 c 0.19,0.07 0.38,0.11 0.57,0.11 0.65,0 1.25,-0.39 1.5,-1.03 L 25.52,2.18 C 25.84,1.35 25.42,0.42 24.6,0.11 23.78,-0.21 22.84,0.21 22.53,1.03 l -0.47,1.24 c -0.32,0.83 0.1,1.76 0.92,2.07 z"
         id="path6" /><path
         class="cls-1"
         d="m 32.46,12.89 c 0.22,0 0.44,-0.04 0.65,-0.14 l 1.21,-0.54 C 35.13,11.85 35.49,10.9 35.13,10.09 34.77,9.28 33.82,8.92 33.01,9.28 L 31.8,9.82 c -0.81,0.36 -1.17,1.31 -0.81,2.12 0.27,0.6 0.85,0.95 1.47,0.95 z"
         id="path7" /><rect
         class="cls-1"
         x="10.37"
         y="27.93"
         width="13.93"
         height="4.7800002"
         id="rect7" /><path
         class="cls-1"
         d="m 17.34,38.35 c 2.36,0 4.27,-1.91 4.27,-4.27 h -8.54 c 0,2.36 1.91,4.27 4.27,4.27 z"
         id="path8" /></g></g><g
     id="g9"
     transform="matrix(0.70631152,0,0,0.70631152,31.677936,0.77846229)"><path
       class="cls-1"
       d="m 2.52,22.87 -1.21,0.54 c -0.81,0.36 -1.17,1.31 -0.81,2.12 0.27,0.6 0.85,0.95 1.47,0.95 0.22,0 0.44,-0.04 0.65,-0.14 L 3.83,25.8 C 4.64,25.44 5,24.49 4.64,23.68 4.28,22.87 3.33,22.5 2.52,22.87 Z"
       id="path1" /><path
       class="cls-1"
       d="m 1.03,13.1 1.24,0.47 c 0.19,0.07 0.38,0.11 0.57,0.11 0.65,0 1.25,-0.39 1.5,-1.03 0.32,-0.83 -0.1,-1.76 -0.92,-2.07 L 2.18,10.11 c -0.82,-0.31 -1.75,0.1 -2.07,0.92 -0.32,0.82 0.1,1.76 0.92,2.07 z"
       id="path2-2" /><path
       class="cls-1"
       d="m 9.82,3.82 c 0.27,0.6 0.85,0.95 1.47,0.95 0.22,0 0.44,-0.04 0.65,-0.14 0.81,-0.36 1.17,-1.31 0.81,-2.12 L 12.21,1.3 C 11.85,0.49 10.9,0.13 10.09,0.49 9.28,0.85 8.92,1.8 9.28,2.61 Z"
       id="path3-9" /><path
       class="cls-1"
       d="m 22.97,4.34 c 0.19,0.07 0.38,0.11 0.57,0.11 0.65,0 1.25,-0.39 1.5,-1.03 L 25.51,2.18 C 25.83,1.35 25.41,0.42 24.59,0.11 23.77,-0.2 22.83,0.21 22.52,1.03 l -0.47,1.24 c -0.32,0.83 0.1,1.76 0.92,2.07 z"
       id="path4-1" /><path
       class="cls-1"
       d="m 32.46,12.88 c 0.22,0 0.44,-0.04 0.65,-0.14 l 1.21,-0.54 c 0.81,-0.36 1.17,-1.31 0.81,-2.12 C 34.77,9.27 33.83,8.9 33.01,9.27 L 31.8,9.81 c -0.81,0.36 -1.17,1.31 -0.81,2.12 0.26,0.6 0.85,0.95 1.47,0.95 z"
       id="path5-7" /><path
       class="cls-1"
       d="m 34.59,22.52 -1.24,-0.47 c -0.82,-0.32 -1.76,0.1 -2.07,0.92 -0.32,0.83 0.1,1.76 0.92,2.07 l 1.24,0.47 c 0.19,0.07 0.38,0.11 0.57,0.11 0.65,0 1.25,-0.39 1.5,-1.03 0.32,-0.83 -0.1,-1.76 -0.92,-2.07 z"
       id="path6-2" /><path
       class="cls-1"
       d="m 8.96,9.12 c -4.62,4.62 -4.62,12.14 0,16.76 l 0.47,0.47 h 15.82 l 0.47,-0.47 c 2.24,-2.24 3.47,-5.21 3.47,-8.38 0,-3.17 -1.23,-6.14 -3.47,-8.38 -4.48,-4.48 -12.28,-4.48 -16.76,0 z m 7.11,10.3 c 0,0.89 -0.72,1.61 -1.61,1.61 -0.89,0 -1.61,-0.72 -1.61,-1.61 v -4.51 c 0,-0.89 0.72,-1.61 1.61,-1.61 0.89,0 1.61,0.72 1.61,1.61 z m 5.75,0 c 0,0.89 -0.72,1.61 -1.61,1.61 -0.89,0 -1.61,-0.72 -1.61,-1.61 v -4.51 c 0,-0.89 0.72,-1.61 1.61,-1.61 0.89,0 1.61,0.72 1.61,1.61 z"
       id="path7-0" /><rect
       class="cls-1"
       x="10.37"
       y="27.93"
       width="13.93"
       height="4.7800002"
       id="rect7-9" /><path
       class="cls-1"
       d="m 17.34,38.35 c 2.36,0 4.27,-1.91 4.27,-4.27 h -8.54 c 0,2.36 1.91,4.27 4.27,4.27 z"
       id="path8-3" /></g></svg>
