<?xml version="1.0" encoding="UTF-8" standalone="no"?>
<svg
   class="w-6 h-6 text-gray-800 dark:text-white"
   aria-hidden="true"
   width="24"
   height="24"
   fill="currentColor"
   viewBox="0 0 24 24"
   version="1.1"
   id="svg1"
   sodipodi:docname="brain.svg"
   inkscape:version="1.3.2 (091e20e, 2023-11-25, custom)"
   xmlns:inkscape="http://www.inkscape.org/namespaces/inkscape"
   xmlns:sodipodi="http://sodipodi.sourceforge.net/DTD/sodipodi-0.dtd"
   xmlns="http://www.w3.org/2000/svg"
   xmlns:svg="http://www.w3.org/2000/svg">
  <defs
     id="defs1" />
  <sodipodi:namedview
     id="namedview1"
     pagecolor="#505050"
     bordercolor="#ffffff"
     borderopacity="1"
     inkscape:showpageshadow="0"
     inkscape:pageopacity="0"
     inkscape:pagecheckerboard="1"
     inkscape:deskcolor="#505050"
     inkscape:zoom="23.6875"
     inkscape:cx="8.1688654"
     inkscape:cy="11.799472"
     inkscape:window-width="2560"
     inkscape:window-height="1351"
     inkscape:window-x="-9"
     inkscape:window-y="-9"
     inkscape:window-maximized="1"
     inkscape:current-layer="svg1" />
  <path
     d="M 10.835363,22.481812 V 0.76353415 A 4.0191857,4.0191857 0 0 0 9.088397,0.35357954 4.0762533,4.0762533 0 0 0 5.2904937,2.9600523 4.0762533,4.0762533 0 0 0 2.729442,7.358912 4.0972169,4.0972169 0 0 0 1.8373248,8.6726302 C 1.7884099,8.7890946 1.7627876,8.9160408 1.7208605,9.0371639 a 3.8899103,3.8899103 0 0 0 -0.1234523,0.4006368 4.0331615,4.0331615 0 0 0 0.023293,1.7096973 4.6783741,4.6783741 0 0 0 -0.91773935,1.434841 l -0.0174695,0.04193 A 4.4966897,4.4966897 0 0 0 0.4339295,13.531524 4.6213066,4.6213066 0 0 0 0.353569,14.329305 c 0.003493,0.279515 0.0314457,0.559029 0.0838541,0.833885 a 4.6585752,4.6585752 0 0 0 0.2736915,0.968984 c 0.006987,0.0163 0.0174695,0.03145 0.0244571,0.04775 a 4.4838787,4.4838787 0 0 0 0.4856565,0.846697 c 0.1222875,0.170038 0.255057,0.331923 0.3983081,0.483326 0.083854,0.08852 0.1723673,0.170038 0.2620448,0.251564 0.1164644,0.105983 0.2387521,0.208471 0.3668628,0.302807 0.1281108,0.09434 0.2329288,0.16305 0.3587103,0.232929 0.023293,0.01514 0.045421,0.03261 0.068715,0.04659 v 0.06173 a 4.0832412,4.0832412 0 0 0 3.5288707,4.040149 3.9900697,3.9900697 0 0 0 4.8379301,0.672 1.1320338,1.1320338 0 0 1 -0.207306,-0.635896 z m 12.734216,-8.944465 a 4.6073308,4.6073308 0 0 0 -0.2504,-0.907257 l -0.01979,-0.04426 A 4.6772095,4.6772095 0 0 0 22.37932,11.147495 3.9795879,3.9795879 0 0 0 22.39912,9.4377975 3.9446485,3.9446485 0 0 0 22.282654,9.0499715 C 22.243049,8.9241933 22.216262,8.7937531 22.166182,8.6726302 A 4.0960523,4.0960523 0 0 0 21.274066,7.358912 4.0762533,4.0762533 0 0 0 18.70952,2.9600523 4.0762533,4.0762533 0 0 0 14.911617,0.35357954 4.0191857,4.0191857 0 0 0 13.164651,0.76353415 V 22.481812 a 1.1320338,1.1320338 0 0 1 -0.214295,0.635896 3.9900697,3.9900697 0 0 0 4.83793,-0.672 4.0832412,4.0832412 0 0 0 3.528871,-4.040149 v -0.05707 c 0.0233,-0.01397 0.04542,-0.03144 0.06871,-0.04659 0.123452,-0.07453 0.242246,-0.151403 0.35871,-0.232928 0.116464,-0.08152 0.249234,-0.196826 0.366862,-0.302808 0.08968,-0.08152 0.178192,-0.16305 0.262046,-0.251563 a 4.6667277,4.6667277 0 0 0 0.534571,-0.684811 c 0.133934,-0.204977 0.250398,-0.420436 0.349393,-0.645213 0.007,-0.0163 0.01747,-0.03145 0.02445,-0.04775 0.101326,-0.24807 0.181683,-0.505456 0.238752,-0.767502 0.01514,-0.06638 0.02795,-0.133933 0.04076,-0.201482 0.05357,-0.276021 0.08152,-0.5567 0.08502,-0.838544 a 4.5980138,4.5980138 0 0 0 -0.07686,-0.791958 z"
     id="path1"
     style="stroke-width:1.16464" />
</svg>
