<?xml version="1.0" encoding="UTF-8" standalone="no"?>
<svg
   id="Layer_1"
   data-name="Layer 1"
   viewBox="0 0 24 24"
   version="1.1"
   sodipodi:docname="calendar.svg"
   inkscape:version="1.3.2 (091e20e, 2023-11-25, custom)"
   xmlns:inkscape="http://www.inkscape.org/namespaces/inkscape"
   xmlns:sodipodi="http://sodipodi.sourceforge.net/DTD/sodipodi-0.dtd"
   xmlns="http://www.w3.org/2000/svg"
   xmlns:svg="http://www.w3.org/2000/svg">
  <defs
     id="defs2" />
  <sodipodi:namedview
     id="namedview2"
     pagecolor="#505050"
     bordercolor="#ffffff"
     borderopacity="1"
     inkscape:showpageshadow="0"
     inkscape:pageopacity="0"
     inkscape:pagecheckerboard="1"
     inkscape:deskcolor="#505050"
     inkscape:zoom="16.749592"
     inkscape:cx="22.448308"
     inkscape:cy="17.463112"
     inkscape:window-width="2560"
     inkscape:window-height="1351"
     inkscape:window-x="2391"
     inkscape:window-y="-9"
     inkscape:window-maximized="1"
     inkscape:current-layer="Layer_1" />
  <path
     d="M 23.074335,5.5660788 C 22.76075,4.3128232 21.759231,3.3568767 20.520082,3.1300971 20.339959,3.097545 20.154413,3.0747586 19.972122,3.0432915 V 1.9343502 c 0,-0.899523 -0.728082,-1.62760475 -1.627606,-1.62760475 -0.899522,0 -1.627604,0.72808175 -1.627604,1.62760475 v 0.6749134 c -3.116321,-0.3005643 -6.320532,-0.3005643 -9.4368518,0 V 1.9343502 c 0,-0.899523 -0.7280819,-1.62760475 -1.6276048,-1.62760475 -0.8995228,0 -1.6276047,0.72808175 -1.6276047,1.62760475 V 3.0422065 C 3.8436441,3.0725884 3.6570121,3.0953749 3.4768905,3.129012 2.2388259,3.3547065 1.2362214,4.310653 0.92263624,5.5639086 0.78700248,6.1086137 0.66655969,6.6685097 0.56347805,7.2403415 H 23.434579 C 23.330412,6.6685097 23.211055,6.1086137 23.075421,5.5649937 Z"
     id="path1"
     style="stroke-width:1.08507" />
  <path
     d="M 23.745994,9.4126513 H 0.25206307 C -0.14724264,13.12142 0.07519665,17.115562 0.92372123,20.50532 c 0.31358517,1.253256 1.31618967,2.209202 2.55425437,2.434897 2.7473967,0.501302 5.6347674,0.753038 8.5221384,0.753038 2.88737,0 5.773655,-0.250651 8.522138,-0.753038 1.238064,-0.225695 2.240668,-1.181641 2.554254,-2.434897 0.84744,-3.389758 1.070963,-7.382815 0.671658,-11.0926687 z M 7.3234629,18.466474 c -0.5989585,0 -1.0850698,-0.486112 -1.0850698,-1.08507 0,-0.598958 0.4861113,-1.08507 1.0850698,-1.08507 0.5989586,0 1.0850698,0.486112 1.0850698,1.08507 0,0.598958 -0.4861112,1.08507 -1.0850698,1.08507 z m 0,-4.05165 c -0.5989585,0 -1.0850698,-0.486112 -1.0850698,-1.08507 0,-0.598959 0.4861113,-1.08507 1.0850698,-1.08507 0.5989586,0 1.0850698,0.486111 1.0850698,1.08507 0,0.598958 -0.4861112,1.08507 -1.0850698,1.08507 z m 4.6809911,4.042969 c -0.598959,0 -1.08507,-0.48611 -1.08507,-1.085069 0,-0.598959 0.486111,-1.08507 1.08507,-1.08507 0.598958,0 1.085069,0.486111 1.085069,1.08507 0,0.598959 -0.486111,1.085069 -1.085069,1.085069 z m 0,-4.05165 c -0.598959,0 -1.08507,-0.486112 -1.08507,-1.08507 0,-0.598958 0.486111,-1.08507 1.08507,-1.08507 0.598958,0 1.085069,0.486112 1.085069,1.08507 0,0.598958 -0.486111,1.08507 -1.085069,1.08507 z m 4.672311,4.05165 c -0.59896,0 -1.08507,-0.48611 -1.08507,-1.085069 0,-0.598959 0.48611,-1.08507 1.08507,-1.08507 0.598958,0 1.085069,0.486111 1.085069,1.08507 0,0.598959 -0.486111,1.085069 -1.085069,1.085069 z m 0,-4.05165 c -0.59896,0 -1.08507,-0.486112 -1.08507,-1.08507 0,-0.598958 0.48611,-1.08507 1.08507,-1.08507 0.598958,0 1.085069,0.486112 1.085069,1.08507 0,0.598958 -0.486111,1.08507 -1.085069,1.08507 z"
     id="path2"
     style="stroke-width:1.08507" />
</svg>
