<?xml version="1.0" encoding="UTF-8" standalone="no"?>
<svg
   class="w-6 h-6 text-gray-800 dark:text-white"
   aria-hidden="true"
   width="24"
   height="24"
   fill="currentColor"
   viewBox="0 0 24 24"
   version="1.1"
   id="svg1"
   sodipodi:docname="flag.svg"
   inkscape:version="1.3.2 (091e20e, 2023-11-25, custom)"
   xmlns:inkscape="http://www.inkscape.org/namespaces/inkscape"
   xmlns:sodipodi="http://sodipodi.sourceforge.net/DTD/sodipodi-0.dtd"
   xmlns="http://www.w3.org/2000/svg"
   xmlns:svg="http://www.w3.org/2000/svg">
  <defs
     id="defs1" />
  <sodipodi:namedview
     id="namedview1"
     pagecolor="#505050"
     bordercolor="#ffffff"
     borderopacity="1"
     inkscape:showpageshadow="0"
     inkscape:pageopacity="0"
     inkscape:pagecheckerboard="1"
     inkscape:deskcolor="#505050"
     inkscape:zoom="23.6875"
     inkscape:cx="8.2110818"
     inkscape:cy="10.955145"
     inkscape:window-width="2560"
     inkscape:window-height="1351"
     inkscape:window-x="-9"
     inkscape:window-y="-9"
     inkscape:window-maximized="1"
     inkscape:current-layer="svg1" />
  <path
     d="m 13.280965,1.768732 c 2.26108,1.116438 4.021527,1.9860843 6.430682,0.8132369 a 1.1751978,1.1751978 0 0 1 1.689935,1.0576781 v 11.211387 a 1.1751978,1.1751978 0 0 1 -0.660461,1.057678 c -3.503265,1.704036 -6.324915,0.282047 -8.520185,-0.823814 A 45.525988,45.525988 0 0 0 11.489963,14.720586 C 10.275984,14.136514 9.2723654,13.766326 8.2511184,13.815684 7.357968,13.857994 6.2861877,14.23523 4.9488125,15.456261 v 7.120524 a 1.1751978,1.1751978 0 1 1 -2.3503956,0 V 3.7395388 A 1.1751978,1.1751978 0 0 1 2.9474507,2.9051483 c 1.788651,-1.7698479 3.4868119,-2.56780725 5.1908487,-2.65007114 1.6535031,-0.0799132 3.1177996,0.5323646 4.3717356,1.13641634 0.264419,0.1269214 0.520612,0.2538427 0.769755,0.3760633 z"
     id="path1"
     style="stroke-width:1.1752" />
</svg>
