<?xml version="1.0" encoding="UTF-8" standalone="no"?>
<svg
   class="w-6 h-6 text-gray-800 dark:text-white"
   aria-hidden="true"
   width="24"
   height="24"
   fill="currentColor"
   viewBox="0 0 24 24"
   version="1.1"
   id="svg1"
   sodipodi:docname="trash.svg"
   inkscape:version="1.3.2 (091e20e, 2023-11-25, custom)"
   xmlns:inkscape="http://www.inkscape.org/namespaces/inkscape"
   xmlns:sodipodi="http://sodipodi.sourceforge.net/DTD/sodipodi-0.dtd"
   xmlns="http://www.w3.org/2000/svg"
   xmlns:svg="http://www.w3.org/2000/svg">
  <defs
     id="defs1" />
  <sodipodi:namedview
     id="namedview1"
     pagecolor="#505050"
     bordercolor="#ffffff"
     borderopacity="1"
     inkscape:showpageshadow="0"
     inkscape:pageopacity="0"
     inkscape:pagecheckerboard="1"
     inkscape:deskcolor="#505050"
     inkscape:zoom="23.6875"
     inkscape:cx="13.467018"
     inkscape:cy="14.37467"
     inkscape:window-width="2560"
     inkscape:window-height="1351"
     inkscape:window-x="2391"
     inkscape:window-y="-9"
     inkscape:window-maximized="1"
     inkscape:current-layer="svg1" />
  <path
     fill-rule="evenodd"
     d="M 7.9374299,0.7975885 A 2.3799472,2.3799472 0 0 1 9.6200526,0.10026392 h 4.7598944 a 2.3799472,2.3799472 0 0 1 2.379947,2.37994728 v 2.3799472 h 3.569921 a 1.1899736,1.1899736 0 1 1 0,2.3799472 V 21.519789 a 2.3799472,2.3799472 0 0 1 -2.379947,2.379947 H 6.0501318 A 2.3799472,2.3799472 0 0 1 3.6701846,21.519789 V 7.2401056 a 1.1899736,1.1899736 0 0 1 0,-2.3799472 H 7.2401054 V 2.4802112 A 2.3799472,2.3799472 0 0 1 7.9374299,0.7975885 Z M 9.6200526,4.8601584 H 14.379947 V 2.4802112 H 9.6200526 Z m 1.1899734,4.759894 a 1.1899738,1.1899738 0 1 0 -2.379947,0 v 9.5197896 a 1.1899738,1.1899738 0 1 0 2.379947,0 z m 4.759894,0 a 1.1899738,1.1899738 0 1 0 -2.379947,0 v 9.5197896 a 1.1899738,1.1899738 0 1 0 2.379947,0 z"
     clip-rule="evenodd"
     id="path1"
     style="stroke-width:1.18998" />
</svg>
