<?xml version="1.0" encoding="UTF-8" standalone="no"?>
<svg
   id="Vrstva_2"
   viewBox="0 0 51.2 38.35"
   version="1.1"
   sodipodi:docname="zarivka_playing_x_bile.svg"
   width="51.200001"
   height="38.349998"
   inkscape:version="1.3.2 (091e20e, 2023-11-25, custom)"
   xmlns:inkscape="http://www.inkscape.org/namespaces/inkscape"
   xmlns:sodipodi="http://sodipodi.sourceforge.net/DTD/sodipodi-0.dtd"
   xmlns="http://www.w3.org/2000/svg"
   xmlns:svg="http://www.w3.org/2000/svg">
  <sodipodi:namedview
     id="namedview8"
     pagecolor="#505050"
     bordercolor="#ffffff"
     borderopacity="1"
     inkscape:showpageshadow="0"
     inkscape:pageopacity="0"
     inkscape:pagecheckerboard="1"
     inkscape:deskcolor="#505050"
     inkscape:zoom="12.027972"
     inkscape:cx="17.875"
     inkscape:cy="7.7735466"
     inkscape:window-width="2560"
     inkscape:window-height="1351"
     inkscape:window-x="2391"
     inkscape:window-y="-9"
     inkscape:window-maximized="1"
     inkscape:current-layer="Vrstva_2" />
  <defs
     id="defs1">
    <style
       id="style1">
      .cls-1 {
        fill: #fff;
      }
    </style>
  </defs>
  <g
     id="Elementy"
     transform="translate(0.55641704,-0.00124807)">
    <g
       id="g8">
      <path
         class="cls-1"
         d="m 49.856501,21.341506 c -0.46,-0.76 -1.51,-1.02 -2.27,-0.56 l -3.58,2.12 -2.18,-3.54 c -0.46,-0.76 -1.51,-1.02 -2.27,-0.56 -0.76,0.46 -1.02,1.51 -0.56,2.27 l 2.13,3.52 -3.52,2.13 c -0.77,0.51 -1.02,1.51 -0.56,2.27 0.46,0.76 1.51,1.02 2.27,0.56 l 3.58,-2.12 2.18,3.54 c 0.46,0.76 1.51,1.02 2.27,0.56 0.76,-0.46 1.02,-1.51 0.56,-2.27 l -2.13,-3.52 3.52,-2.13 c 0.76,-0.46 1.02,-1.51 0.56,-2.27 z"
         id="path1" />
      <path
         id="path2"
         class="cls-1"
         d="m 17.330078,5.7597656 c -3.069988,0 -6.140867,1.1193842 -8.3808592,3.359375 -4.6199816,4.6199804 -4.6199816,12.1417384 0,16.7617184 l 0.4707031,0.46875 H 25.240234 l 0.470704,-0.46875 c 0.08,-0.08 0.13875,-0.181718 0.21875,-0.261718 1.589992,3.509984 5.150813,7.90039 13.050781,7.90039 0.889996,0 1.609375,-0.719379 1.609375,-1.609375 0,-0.794136 -0.574418,-1.447484 -1.330078,-1.580078 -0.08838,0.01101 -0.17801,0.01757 -0.267578,0.01953 -0.0666,0.0024 -0.134802,0.0075 -0.201172,0.01367 -0.249137,0.01951 -0.498394,0.02167 -0.746094,-0.01563 -0.149761,-0.02299 -0.299459,-0.05238 -0.445313,-0.09375 h -0.002 c -0.01347,-0.0019 -0.0231,-0.0052 -0.02539,-0.0078 -0.01053,-0.0031 -0.02076,-0.0065 -0.03125,-0.0098 -0.0682,-0.01162 -0.135758,-0.0253 -0.203125,-0.04102 -0.02992,-0.0064 -0.06823,-0.01426 -0.07422,-0.01562 -0.0063,-8.07e-4 0.0013,-0.001 -0.0059,-0.002 -0.0011,-3.08e-4 -0.0026,3.47e-4 -0.0039,0 -0.09031,-0.01349 -0.08863,-0.01163 -0.175781,-0.02734 -0.02037,-0.0037 -0.04219,-0.0077 -0.0625,-0.01172 -0.0028,-5.85e-4 -0.0048,-0.0013 -0.0078,-0.002 -0.0014,-1.91e-4 -0.0025,-0.0018 -0.0039,-0.002 -0.0065,-9.02e-4 -0.013,-0.0011 -0.01953,-0.002 -0.02631,-0.0042 -0.116168,-0.02139 -0.195313,-0.03711 0.12657,0.03573 0.250688,0.07648 0.38086,0.103516 -0.310654,-0.0366 -0.608085,-0.08427 -0.898438,-0.138672 -0.0052,-6.27e-4 -0.01043,-0.0013 -0.01563,-0.002 -0.200652,-0.02664 -0.398975,-0.06103 -0.59375,-0.117188 -0.05412,-0.0156 -0.104991,-0.03103 -0.154297,-0.04687 -5.142059,-1.30552 -6.84363,-5.419257 -7.388671,-7.544922 0.679996,-1.509992 1.060547,-3.149617 1.060547,-4.849609 0,-3.159988 -1.228762,-6.140868 -3.46875,-8.3808594 -2.239992,-2.2399908 -5.310872,-3.359375 -8.38086,-3.359375 z m -1,10.7695314 c 0.889996,0 1.609375,0.721332 1.609375,1.611328 v 1.449219 c 0,0.889996 -0.719379,1.609375 -1.609375,1.609375 -0.889996,0 -1.609375,-0.719379 -1.609375,-1.609375 v -1.449219 c 0,-0.889996 0.719379,-1.611328 1.609375,-1.611328 z m 5.75,0 c 0.889996,0 1.609375,0.721332 1.609375,1.611328 v 1.449219 c 0,0.889996 -0.719379,1.609375 -1.609375,1.609375 -0.889996,0 -1.609375,-0.719379 -1.609375,-1.609375 v -1.449219 c 0,-0.889996 0.719379,-1.611328 1.609375,-1.611328 z" />
      <path
         class="cls-1"
         d="m 2.52,22.88 -1.21,0.54 c -0.81,0.36 -1.17,1.31 -0.82,2.12 0.27,0.6 0.85,0.95 1.47,0.95 0.22,0 0.44,-0.04 0.65,-0.14 L 3.82,25.81 C 4.63,25.45 4.99,24.5 4.64,23.69 4.28,22.88 3.33,22.52 2.52,22.87 Z"
         id="path3" />
      <path
         class="cls-1"
         d="m 1.03,13.1 1.24,0.47 c 0.19,0.07 0.38,0.11 0.57,0.11 0.65,0 1.25,-0.39 1.5,-1.03 0.32,-0.83 -0.1,-1.76 -0.92,-2.07 L 2.18,10.11 c -0.82,-0.32 -1.76,0.1 -2.07,0.92 -0.32,0.83 0.1,1.76 0.92,2.07 z"
         id="path4" />
      <path
         class="cls-1"
         d="m 9.82,3.82 c 0.27,0.6 0.85,0.95 1.47,0.95 0.22,0 0.44,-0.04 0.65,-0.14 0.81,-0.36 1.17,-1.31 0.81,-2.12 L 12.21,1.3 C 11.85,0.49 10.9,0.12 10.09,0.49 9.28,0.85 8.92,1.8 9.28,2.61 Z"
         id="path5" />
      <path
         class="cls-1"
         d="m 22.98,4.34 c 0.19,0.07 0.38,0.11 0.57,0.11 0.65,0 1.25,-0.39 1.5,-1.03 L 25.52,2.18 C 25.84,1.35 25.42,0.42 24.6,0.11 23.78,-0.21 22.84,0.21 22.53,1.03 l -0.47,1.24 c -0.32,0.83 0.1,1.76 0.92,2.07 z"
         id="path6" />
      <path
         class="cls-1"
         d="m 32.46,12.89 c 0.22,0 0.44,-0.04 0.65,-0.14 l 1.21,-0.54 C 35.13,11.85 35.49,10.9 35.13,10.09 34.77,9.28 33.82,8.92 33.01,9.28 L 31.8,9.82 c -0.81,0.36 -1.17,1.31 -0.81,2.12 0.27,0.6 0.85,0.95 1.47,0.95 z"
         id="path7" />
      <rect
         class="cls-1"
         x="10.37"
         y="27.93"
         width="13.93"
         height="4.7800002"
         id="rect7" />
      <path
         class="cls-1"
         d="m 17.34,38.35 c 2.36,0 4.27,-1.91 4.27,-4.27 h -8.54 c 0,2.36 1.91,4.27 4.27,4.27 z"
         id="path8" />
    </g>
  </g>
</svg>
