<?xml version="1.0" encoding="UTF-8" standalone="no"?>
<svg
   id="Vrstva_2"
   viewBox="0 0 82.44 90.22"
   version="1.1"
   sodipodi:docname="favicon_error.svg"
   inkscape:version="1.3.2 (091e20e, 2023-11-25, custom)"
   inkscape:export-filename="..\png\favicon_error.png"
   inkscape:export-xdpi="96"
   inkscape:export-ydpi="96"
   xmlns:inkscape="http://www.inkscape.org/namespaces/inkscape"
   xmlns:sodipodi="http://sodipodi.sourceforge.net/DTD/sodipodi-0.dtd"
   xmlns="http://www.w3.org/2000/svg"
   xmlns:svg="http://www.w3.org/2000/svg">
  <sodipodi:namedview
     id="namedview6"
     pagecolor="#505050"
     bordercolor="#ffffff"
     borderopacity="1"
     inkscape:showpageshadow="0"
     inkscape:pageopacity="0"
     inkscape:pagecheckerboard="1"
     inkscape:deskcolor="#505050"
     inkscape:zoom="12.602527"
     inkscape:cx="19.757942"
     inkscape:cy="39.793606"
     inkscape:window-width="2560"
     inkscape:window-height="1351"
     inkscape:window-x="2391"
     inkscape:window-y="-9"
     inkscape:window-maximized="1"
     inkscape:current-layer="g6" />
  <defs
     id="defs1">
    <style
       id="style1">
      .cls-1 {
        fill: #0070bb;
      }

      .cls-2 {
        fill: #0257a5;
      }
    </style>
  </defs>
  <g
     id="Elementy">
    <g
       id="g6">
      <g
         id="g3">
        <rect
           style="fill:#ffffff;stroke-width:0;stroke-linecap:round;stroke-linejoin:round;stroke-miterlimit:20;paint-order:stroke fill markers;fill-opacity:1"
           id="rect6"
           width="57.607494"
           height="60.464066"
           x="13.092612"
           y="11.664328" />
        <path
           class="cls-1"
           d="M44.56,34.31c-1.23,0-2.23,1-2.23,2.23v6.26c0,1.23,1,2.23,2.23,2.23s2.23-1,2.23-2.23v-6.26c0-1.23-1-2.23-2.23-2.23Z"
           id="path1"
           style="fill:#e31837;fill-opacity:1" />
        <path
           class="cls-1"
           d="M36.58,34.31c-1.23,0-2.23,1-2.23,2.23v6.26c0,1.23,1,2.23,2.23,2.23s2.23-1,2.23-2.23v-6.26c0-1.23-1-2.23-2.23-2.23Z"
           id="path2" />
        <path
           class="cls-1"
           d="M 41.22,0 0,12.16 V 66.42 L 41.22,90.21 82.44,66.42 V 12.16 Z m 5.89,18.98 0.66,-1.72 c 0.44,-1.15 1.74,-1.72 2.88,-1.28 1.15,0.44 1.73,1.73 1.28,2.88 l -0.66,1.72 c -0.34,0.89 -1.18,1.43 -2.08,1.43 -0.27,0 -0.54,-0.05 -0.8,-0.15 -1.15,-0.44 -1.73,-1.73 -1.28,-2.88 z M 30.49,16.52 c 1.13,-0.51 2.44,0 2.94,1.13 l 0.75,1.68 c 0.5,1.12 0,2.44 -1.13,2.94 -0.29,0.13 -0.6,0.19 -0.91,0.19 -0.85,0 -1.67,-0.49 -2.04,-1.32 l -0.75,-1.68 c -0.5,-1.12 0,-2.44 1.13,-2.94 z M 16.62,31.15 C 17.06,30 18.35,29.43 19.5,29.87 l 1.72,0.66 c 1.15,0.44 1.73,1.73 1.29,2.88 -0.34,0.89 -1.18,1.43 -2.08,1.43 -0.27,0 -0.54,-0.05 -0.8,-0.15 L 17.91,34.03 C 16.76,33.59 16.18,32.3 16.63,31.15 Z m 5.16,20.53 -1.68,0.75 c -0.29,0.13 -0.6,0.19 -0.91,0.19 -0.85,0 -1.67,-0.49 -2.04,-1.32 -0.5,-1.12 0,-2.44 1.13,-2.94 l 1.68,-0.75 c 1.12,-0.51 2.44,0 2.94,1.13 0.5,1.12 0,2.44 -1.13,2.94 z m 18.78,17.43 c -3.28,0 -5.93,-2.66 -5.93,-5.93 h 11.86 c 0,3.28 -2.65,5.93 -5.93,5.93 z m 9.68,-7.83 H 30.88 v -6.64 h 19.36 z m 1.96,-9.5 -0.65,0.65 H 29.58 l -0.65,-0.65 c -6.42,-6.42 -6.42,-16.86 0,-23.28 6.21,-6.22 17.06,-6.22 23.28,0 3.11,3.11 4.82,7.24 4.82,11.64 0,4.4 -1.71,8.53 -4.82,11.64 z m 8.46,-22.31 1.68,-0.75 c 1.12,-0.5 2.44,0 2.94,1.13 0.5,1.12 0,2.44 -1.13,2.94 l -1.68,0.75 c -0.29,0.13 -0.6,0.19 -0.91,0.19 -0.85,0 -1.67,-0.49 -2.04,-1.32 -0.5,-1.12 0,-2.44 1.13,-2.94 z M 65.82,50 c -0.34,0.89 -1.18,1.43 -2.08,1.43 -0.27,0 -0.54,-0.05 -0.8,-0.15 l -1.72,-0.66 c -1.15,-0.44 -1.73,-1.73 -1.28,-2.88 0.44,-1.15 1.74,-1.72 2.88,-1.28 l 1.72,0.66 c 1.15,0.44 1.73,1.73 1.28,2.88 z"
           id="path3"
           style="display:inline;fill:#e31837;fill-opacity:1" />
      </g>
      <g
         id="g5">
        <path
           class="cls-2"
           d="M28.92,51.78c-6.42-6.42-6.42-16.86,0-23.28,3.27-3.27,7.81-4.78,12.3-4.61V0L0,12.16v54.26l41.22,23.79v-21.18c-.22.02-.43.07-.66.07-3.28,0-5.93-2.66-5.93-5.93h6.59v-1.9h-10.34v-6.64h10.34v-2.2h-11.64l-.65-.65ZM30.49,16.52c1.13-.51,2.44,0,2.94,1.13l.75,1.68c.5,1.12,0,2.44-1.13,2.94-.29.13-.6.19-.91.19-.85,0-1.67-.49-2.04-1.32l-.75-1.68c-.5-1.12,0-2.44,1.13-2.94ZM16.62,31.15c.44-1.15,1.73-1.72,2.88-1.28l1.72.66c1.15.44,1.73,1.73,1.29,2.88-.34.89-1.18,1.43-2.08,1.43-.27,0-.54-.05-.8-.15l-1.72-.66c-1.15-.44-1.73-1.73-1.28-2.88ZM21.78,51.68l-1.68.75c-.29.13-.6.19-.91.19-.85,0-1.67-.49-2.04-1.32-.5-1.12,0-2.44,1.13-2.94l1.68-.75c1.12-.51,2.44,0,2.94,1.13.5,1.12,0,2.44-1.13,2.94Z"
           id="path4"
           style="fill:#a11127;fill-opacity:1" />
        <path
           class="cls-2"
           d="M36.58,34.31c-1.23,0-2.23,1-2.23,2.23v6.26c0,1.23,1,2.23,2.23,2.23s2.23-1,2.23-2.23v-6.26c0-1.23-1-2.23-2.23-2.23Z"
           id="path5"
           style="fill:#a11127;fill-opacity:1" />
      </g>
    </g>
  </g>
</svg>
