<?xml version="1.0" encoding="UTF-8" standalone="no"?>
<!-- Created with Inkscape (http://www.inkscape.org/) -->

<svg
   width="1920"
   height="1080"
   viewBox="0 0 508 285.75"
   version="1.1"
   id="svg1"
   inkscape:version="1.3.2 (091e20e, 2023-11-25, custom)"
   sodipodi:docname="mask.svg"
   xmlns:inkscape="http://www.inkscape.org/namespaces/inkscape"
   xmlns:sodipodi="http://sodipodi.sourceforge.net/DTD/sodipodi-0.dtd"
   xmlns="http://www.w3.org/2000/svg"
   xmlns:svg="http://www.w3.org/2000/svg">
  <sodipodi:namedview
     id="namedview1"
     pagecolor="#505050"
     bordercolor="#ffffff"
     borderopacity="1"
     inkscape:showpageshadow="0"
     inkscape:pageopacity="0"
     inkscape:pagecheckerboard="1"
     inkscape:deskcolor="#505050"
     inkscape:document-units="px"
     inkscape:zoom="0.35811417"
     inkscape:cx="1027.6052"
     inkscape:cy="367.20133"
     inkscape:window-width="2560"
     inkscape:window-height="1351"
     inkscape:window-x="2391"
     inkscape:window-y="-9"
     inkscape:window-maximized="1"
     inkscape:current-layer="layer1" />
  <defs
     id="defs1">
    <inkscape:path-effect
       effect="spiro"
       id="path-effect1"
       is_visible="true"
       lpeversion="1" />
  </defs>
  <g
     inkscape:label="Vrstva 1"
     inkscape:groupmode="layer"
     id="layer1">
    <path
       style="fill:#ffffff;stroke-width:0;stroke-linecap:round;stroke-linejoin:round;stroke-miterlimit:20;paint-order:stroke fill markers"
       d="M -1.0448549,64.258575 C 50.600598,109.06411 105.3227,152.37344 169.26649,176.58047 c 31.26149,11.83458 64.14742,18.85974 97.17149,24.03166 14.66351,2.29646 29.51269,4.24077 44.31389,3.13773 14.80119,-1.10305 29.69645,-5.45751 41.36422,-14.63113 8.88006,-6.98182 15.49906,-16.39677 21.54963,-25.93574 6.05057,-9.53897 11.71623,-19.41266 19.1997,-27.87428 12.79034,-14.46213 30.15552,-23.99443 47.54091,-32.39051 20.8377,-10.063337 42.30638,-18.950455 62.16886,-30.823214 15.94147,-9.528982 31.16456,-21.403489 40.2269,-37.614775 6.41218,-11.470504 9.42841,-24.6464962 9.89729,-37.7792283 0.46887,-13.1327317 -1.53428,-26.2568487 -4.67301,-39.0176047 -13.92017,-56.593622 -50.76706,-106.663848 -99.04744,-139.307578 -48.28039,-32.64374 -107.38169,-48.13144 -165.63684,-46.41482 -58.25515,1.71662 -115.53222,20.22937 -165.44983,50.30994 -49.917617,30.08058 -92.593507,71.48953 -126.7735263,118.694779 -9.0118817,12.446105 -17.5428457,25.477699 -22.5829507,39.99379 -5.040104,14.5160913 -6.350829,30.785032 -0.926283,45.161883 5.872515,15.564117 18.780203,27.235926 31.3456451,38.137203 z"
       id="path1"
       inkscape:path-effect="#path-effect1"
       inkscape:original-d="M -1.0448549,64.258575 C 10.100264,76.970976 112.67018,139.13984 169.26649,176.58047 c 56.5963,37.44064 65.12928,16.02111 97.17149,24.03166 32.04223,8.01056 56.9446,-7.83641 85.67811,-11.4934 28.73352,-3.65699 26.99208,-35.69921 40.74933,-53.81002 13.75727,-18.11082 31.69393,-21.59367 47.54091,-32.39051 15.84696,-10.79683 41.62005,-20.722952 62.16886,-30.823214 20.54881,-10.100265 26.46966,-25.076517 40.2269,-37.614775 13.75728,-12.538259 3.657,-51.023746 5.22428,-76.796833 C 549.59366,-68.089708 176.75462,-53.113455 -8.8812663,-59.034301 -194.51715,-64.955144 -24.554089,-2.6121372 -32.3905,26.121372 c -7.836413,28.73351 21.245382,25.424803 31.3456451,38.137203 z"
       transform="matrix(1.0632445,0,0,1.0632445,-22.307728,66.665602)" />
  </g>
</svg>
